<?xml version="1.0" encoding="utf-8"?>
<!-- Generator: Adobe Illustrator 24.2.3, SVG Export Plug-In . SVG Version: 6.00 Build 0)  -->
<svg version="1.1" id="Layer_1" xmlns="http://www.w3.org/2000/svg" xmlns:xlink="http://www.w3.org/1999/xlink" x="0px" y="0px"
	 width="1125px" height="299.8px" viewBox="0 0 1125 299.8" style="enable-background:new 0 0 1125 299.8;" xml:space="preserve">
<style type="text/css">
	.st0{fill:#6AA9CA;}
</style>
<path class="st0" d="M0,279l256.5-1.3c0,0,11.9-1.4,16.6-2.7c4.7-1.3,17.2-3.4,27.9-10.1s29.7-18.8,39.2-30.9s19-25.5,23.8-36.3
	s16.6-40.3,16.6-40.3l15.5-37.6c0,0,13-41.7,24.9-56.5c8.3-12.1,14.3-20.2,19-24.2s16.5-16.2,32-24.3c13-6.7,15.4-9.4,27.3-12.1
	c7.1-1.3,7.1-2.7,21.4-2.7H1125v299.8H0.6L0,279z"/>
</svg>
